<svg xmlns="http://www.w3.org/2000/svg" xmlns:xlink="http://www.w3.org/1999/xlink" viewBox="0 0 665 391.186">
  <defs>
    <style>
      .cls-1 {
        fill: url(#linear-gradient);
      }

      .cls-2 {
        fill: url(#linear-gradient-2);
      }

      .cls-3 {
        fill: #3b4472;
      }

      .cls-4 {
        fill: #303963;
      }

      .cls-5 {
        fill: #3669b2;
      }

      .cls-6 {
        fill: #2b5d99;
      }

      .cls-7 {
        clip-path: url(#clip-path);
      }

      .cls-8 {
        fill: #e09d88;
      }

      .cls-9 {
        fill: #ecb29a;
      }

      .cls-10 {
        fill: #c7d9ea;
      }

      .cls-11 {
        fill: #fff;
      }

      .cls-12 {
        fill: #e6e6e6;
      }

      .cls-13 {
        fill: #ccc;
      }

      .cls-14 {
        fill: #f2f2f2;
      }

      .cls-15 {
        fill: #252852;
      }

      .cls-16 {
        fill: #dae8f8;
      }

      .cls-17 {
        fill: #b2d7f9;
      }

      .cls-18 {
        fill: #f0f2f8;
      }

      .cls-19 {
        fill: #d4d9e8;
      }

      .cls-20 {
        fill: #51c4f6;
      }

      .cls-21 {
        fill: #77d26f;
      }

      .cls-22 {
        fill: #414784;
      }

      .cls-23 {
        fill: #4d83c4;
      }

      .cls-24 {
        fill: #6493d8;
      }

      .cls-25 {
        fill: #4c1b00;
      }

      .cls-26 {
        fill: #cedfef;
      }

      .cls-27 {
        fill: #fbfafb;
      }

      .cls-28 {
        fill: #3d9fd7;
      }

      .cls-29 {
        fill: #3e74b5;
      }

      .cls-30 {
        clip-path: url(#clip-path-2);
      }

      .cls-31 {
        fill: url(#linear-gradient-5);
      }
    </style>
    <linearGradient id="linear-gradient" x1="0.441" y1="0.455" x2="-0.356" y2="-0.082" gradientUnits="objectBoundingBox">
      <stop offset="0" stop-color="#3b4472"/>
      <stop offset="1" stop-color="#1a1e3e"/>
    </linearGradient>
    <linearGradient id="linear-gradient-2" x1="0.439" y1="0.429" x2="1.149" y2="0.709" xlink:href="#linear-gradient"/>
    <clipPath id="clip-path">
      <path id="Clip_11" data-name="Clip 11" class="cls-1" d="M19.857,2.9C12.35,8.678,9.6,12.446,7.346,17.973h0C5.094,23.5,1.09,25.51.34,31.791h0c-.751,6.281-.513,16.9,3.378,23.49h0C5.923,59.015,14.527,67.8,17.029,69.306h0L59.392,29.781S69.4,14.456,63.9,6.165h0C58.391-2.125,50.134.387,44.378,1.141h0a32.022,32.022,0,0,1-7.51-.529h0A52.993,52.993,0,0,0,29.784,0h0c-3.514,0-7,.65-9.927,2.9" transform="translate(0.283 0.217)"/>
    </clipPath>
    <clipPath id="clip-path-2">
      <path id="Clip_203" data-name="Clip 203" class="cls-2" d="M18.459,11.149,5.567,9.388S4.4,16.723,7.033,20.537h0L0,22.591s-.293,22.3,12.892,34.326h0c13.184,12.028,22.267,31.1,22.267,31.1h0s4.981,7.628,7.032,8.8h0c2.052,1.174,11.33,0,11.33,0h0a22.6,22.6,0,0,1,4.492-7.335h0c2.93-2.934,18.459-15.256,17.58-34.032h0c-.879-18.777-10.841-30.219-22.561-37.26h0C41.313,11.149,40.141.587,40.141.587h0s-3.223,6.161-3.516,9.975h0L20.217,0a32.137,32.137,0,0,0-1.758,11.149" transform="translate(0.065 0.436)"/>
    </clipPath>
    <linearGradient id="linear-gradient-5" x1="0.5" x2="0.5" y2="1" gradientUnits="objectBoundingBox">
      <stop offset="0" stop-color="#67a2d9" stop-opacity="0.078"/>
      <stop offset="1" stop-color="#3669b2" stop-opacity="0.078"/>
    </linearGradient>
  </defs>
  <g id="Page_1" data-name="Page 1" transform="translate(0 -0.217)">
    <g id="Group_9" data-name="Group 9" transform="translate(91 69)">
      <path id="Fill_1" data-name="Fill 1" class="cls-3" d="M17.906,141.366l34.93-10.118a13.938,13.938,0,0,0,9.654-9.968L88.679,17.316c3-11.892-9.839-21.534-20.535-15.428L19.53,29.643a13.9,13.9,0,0,0-6.877,10.072L.148,126.042a13.956,13.956,0,0,0,17.758,15.324" transform="translate(0.025 43.841)"/>
      <path id="Fill_3" data-name="Fill 3" class="cls-4" d="M17.906,141.366l34.93-10.118a13.939,13.939,0,0,0,9.654-9.968L88.679,17.317c3-11.892-9.839-21.534-20.535-15.428L19.53,29.643a13.9,13.9,0,0,0-6.877,10.072L.148,126.042a13.956,13.956,0,0,0,17.758,15.324" transform="translate(11.101 47.615)"/>
      <path id="Fill_5" data-name="Fill 5" class="cls-5" d="M41.132,0S15.684,14.321,9.775,22.278C1.751,33.086,0,61.459,0,61.459s17.467,3.474,25.551,2.284l2.867-6.876a117.47,117.47,0,0,1,4.194,17.475c1.412,9.222-5.5,66.24-2.5,69.811l73.838-9.817S96.215,39.988,78.631,13.948C70.49,1.894,58.459.867,58.459.867Z" transform="translate(21.659 0.253)"/>
      <path id="Fill_7" data-name="Fill 7" class="cls-6" d="M66.133,11.108A30.662,30.662,0,0,0,54.236.628L41.937,0S-.886,13.258.014,60.551c3.467.278,10.562.717,13.038.352l2.868-6.876A117.47,117.47,0,0,1,20.114,71.5c.731,4.774-.767,22.355-1.968,38.7,12.91,2.268,13.815,2.812,19.042,2.8,6.118-.009,14.356,4.019,20.122,3.231S81.3,98.783,84.4,95.909a17.121,17.121,0,0,0,2.513-4.39C82.889,62.5,76.09,25.853,66.133,11.108" transform="translate(34.157 3.094)"/>
    </g>
    <g id="Group_12" data-name="Group 12" transform="translate(136)">
      <path id="Clip_11-2" data-name="Clip 11" class="cls-1" d="M19.857,2.9C12.35,8.678,9.6,12.446,7.346,17.973h0C5.094,23.5,1.09,25.51.34,31.791h0c-.751,6.281-.513,16.9,3.378,23.49h0C5.923,59.015,14.527,67.8,17.029,69.306h0L59.392,29.781S69.4,14.456,63.9,6.165h0C58.391-2.125,50.134.387,44.378,1.141h0a32.022,32.022,0,0,1-7.51-.529h0A52.993,52.993,0,0,0,29.784,0h0c-3.514,0-7,.65-9.927,2.9" transform="translate(0.283 0.217)"/>
    </g>
    <g id="Group_17" data-name="Group 17" transform="translate(148 21)">
      <path id="Fill_13" data-name="Fill 13" class="cls-8" d="M12.8,0,0,10.6S13.391,37.027,28.271,36.729s-3.869-19.41-2.976-22.4l5.059-7.764Z" transform="translate(1.991 40.192)"/>
      <path id="Fill_15" data-name="Fill 15" class="cls-9" d="M41.877,0a5.074,5.074,0,0,1,5.1,4.536c.83,7.71,1.8,23.726-2.576,35.445-5.973,15.982-25.384,6.992-28.371,4.5S-1.385,29.245.108,24.5s5.973-4.245,9.706-1,2.24-6.242,3.982-9.989,7.715-3.746,8.71-8.99C23.218.769,35.152.086,41.877,0" transform="translate(0.523 0.332)"/>
    </g>
    <path id="Fill_18" data-name="Fill 18" class="cls-10" d="M473.607,0,0,133.847l.045,18.768L175.947,250,665,117.586,664.723,98.6Z" transform="translate(0 89)"/>
    <path id="Fill_19" data-name="Fill 19" class="cls-11" d="M176.706,235,664,98.624,472.725,0,0,136.665Z" transform="translate(1 89)"/>
    <path id="Fill_20" data-name="Fill 20" class="cls-12" d="M70.009,37.171,80.812,0,10.947,19.85,0,56.941l1.085-.3L0,56.951,26.959,70,93,48.473Z" transform="translate(259 139)"/>
    <path id="Fill_21" data-name="Fill 21" class="cls-13" d="M1.08,30.7,69.686,11.374,73,0,3.211,19.966,0,31Z" transform="translate(259 165)"/>
    <g id="Group_196" data-name="Group 196" transform="translate(72 1)">
      <path id="Fill_22" data-name="Fill 22" class="cls-9" d="M27.757,2.17S21.094,31.09,21.913,38.181s33.56,10.091,39.018,13.091L60.615,63.8S1.261,60.272.169,50.181,3.627,0,3.627,0Z" transform="translate(38.023 129.711)"/>
      <path id="Fill_24" data-name="Fill 24" class="cls-14" d="M211.361,1.252c-.079-.042-.158-.083-.239-.123l-.047-.025h0a10.508,10.508,0,0,0-7.587-.7L7.7,55.862A10.584,10.584,0,0,0,0,66.044V192.239a10.563,10.563,0,0,0,6.237,9.65l8.521,4.247,7.975-1.6,3.685-4.773a5.371,5.371,0,0,0,.154-1.019l182.669-51.316a10.584,10.584,0,0,0,7.725-10.188V14.13a65.788,65.788,0,0,0,5.018-7.387Z" transform="translate(98.638 0.182)"/>
      <path id="Fill_26" data-name="Fill 26" class="cls-13" d="M0,192.239V66.045A10.584,10.584,0,0,1,7.7,55.863L203.486.408a10.589,10.589,0,0,1,13.479,10.181v126.65a10.584,10.584,0,0,1-7.724,10.188l-195.784,55A10.589,10.589,0,0,1,0,192.239" transform="translate(109.192 5.635)"/>
      <path id="Fill_28" data-name="Fill 28" class="cls-12" d="M16.739,8.363A8.37,8.37,0,1,1,8.37,0a8.366,8.366,0,0,1,8.37,8.363" transform="translate(219.898 154.307)"/>
      <path id="Fill_30" data-name="Fill 30" class="cls-12" d="M211.361,1.252q-.119-.063-.239-.123l-.047-.025h0a10.507,10.507,0,0,0-7.587-.7L7.7,55.862A10.585,10.585,0,0,0,0,66.044V192.239a10.562,10.562,0,0,0,6.237,9.65l8.521,4.247,7.974-1.6,3.685-4.773a5.335,5.335,0,0,0,.154-1.019l182.669-51.316a10.584,10.584,0,0,0,7.725-10.188V14.13a65.869,65.869,0,0,0,5.018-7.387Z" transform="translate(145.512 14.643)"/>
      <path id="Fill_32" data-name="Fill 32" class="cls-15" d="M0,192.239V66.045A10.584,10.584,0,0,1,7.7,55.863L203.486.408a10.589,10.589,0,0,1,13.479,10.181v126.65a10.584,10.584,0,0,1-7.724,10.188l-195.784,55A10.589,10.589,0,0,1,0,192.239" transform="translate(156.066 20.096)"/>
      <path id="Fill_34" data-name="Fill 34" class="cls-16" d="M0,158.114V64.691a14.293,14.293,0,0,1,10.4-13.75L189.207.295a7.656,7.656,0,0,1,9.746,7.362v95.35Z" transform="translate(165.072 32.762)"/>
      <path id="Fill_36" data-name="Fill 36" class="cls-17" d="M0,131.025,198.953,0V77.554Z" transform="translate(165.072 58.214)"/>
      <path id="Fill_38" data-name="Fill 38" class="cls-18" d="M69.819,36.957,80.592,0,10.917,19.735,0,56.613l1.082-.3L0,56.621,24.388,68.39l68.359-20.2Z" transform="translate(229.893 159.479)"/>
      <path id="Fill_40" data-name="Fill 40" class="cls-19" d="M1.082,30.749,69.819,11.391,73.139,0,3.217,20,0,31.046Z" transform="translate(229.893 185.045)"/>
      <path id="Fill_42" data-name="Fill 42" class="cls-12" d="M0,20.456V12.879L45.467,0V7.953Z" transform="translate(276.333 146.534)"/>
      <path id="Fill_44" data-name="Fill 44" class="cls-18" d="M0,49.4V9.093L32.1,0V40.569Z" transform="translate(323.451 109.813)"/>
      <path id="Fill_46" data-name="Fill 46" class="cls-17" d="M0,11.757l10.539-2.9V0L0,2.985Z" transform="translate(340.599 124.829)"/>
      <path id="Fill_48" data-name="Fill 48" class="cls-17" d="M10.54,8.762V0L0,2.985v8.679Z" transform="translate(328.791 128.174)"/>
      <path id="Fill_50" data-name="Fill 50" class="cls-17" d="M0,2.9v8.756l10.539-2.9V0Z" transform="translate(340.599 134.999)"/>
      <path id="Fill_52" data-name="Fill 52" class="cls-17" d="M10.54,0,0,2.9v8.751l10.54-2.9Z" transform="translate(328.791 138.251)"/>
      <path id="Fill_54" data-name="Fill 54" class="cls-17" d="M7.187,4.436,0,0V6.362Z" transform="translate(331.854 122.678)"/>
      <path id="Fill_56" data-name="Fill 56" class="cls-17" d="M0,7.764,5.514,0V6.242Z" transform="translate(340.519 119.008)"/>
      <path id="Fill_58" data-name="Fill 58" class="cls-18" d="M0,58.818V79.932A10.589,10.589,0,0,0,13.456,90.119l195.784-55a10.584,10.584,0,0,0,7.724-10.188V0L9.006,56.835Z" transform="translate(155.139 133.331)"/>
      <path id="Fill_60" data-name="Fill 60" class="cls-18" d="M189.207.295,10.4,50.941A14.293,14.293,0,0,0,0,64.692V81.343l198.953-55.89V7.657A7.656,7.656,0,0,0,189.207.295" transform="translate(165.072 32.762)"/>
      <path id="Fill_62" data-name="Fill 62" class="cls-19" d="M16.739,8.363A8.37,8.37,0,1,1,8.37,0a8.366,8.366,0,0,1,8.37,8.363" transform="translate(258.59 169.591)"/>
      <path id="Fill_64" data-name="Fill 64" class="cls-12" d="M105.267,10.039,84.782,0,34.194,14.242,0,21.141v2.727L32.649,39.633l79.975-22.544V13.753Z" transform="translate(256.504 208.399)"/>
      <path id="Fill_66" data-name="Fill 66" class="cls-18" d="M0,23.223,82.491,0l30.132,15.835L32.649,38.989Z" transform="translate(256.504 206.317)"/>
      <path id="Fill_68" data-name="Fill 68" class="cls-19" d="M0,21.984,76.108,0l25.654,13.026L26.449,34.242Z" transform="translate(262.712 208.399)"/>
      <path id="Fill_70" data-name="Fill 70" class="cls-16" d="M0,16.671V9.093L32.1,0V7.842Z" transform="translate(322.33 38.138)"/>
      <path id="Fill_72" data-name="Fill 72" class="cls-11" d="M0,16.671V9.093L32.1,0V7.842Z" transform="translate(323.451 65.098)"/>
      <path id="Fill_74" data-name="Fill 74" class="cls-20" d="M0,16.671V9.093L32.1,0V7.842Z" transform="translate(175.038 89.753)"/>
      <path id="Fill_76" data-name="Fill 76" class="cls-21" d="M0,16.671V9.093L32.1,0V7.842Z" transform="translate(212.215 127.841)"/>
      <path id="Fill_78" data-name="Fill 78" class="cls-17" d="M0,11.217V9.094L32.1,0V2.388Z" transform="translate(210.7 98.714)"/>
      <path id="Fill_80" data-name="Fill 80" class="cls-17" d="M0,11.217V9.094L32.1,0V2.388Z" transform="translate(210.7 102.941)"/>
      <path id="Fill_82" data-name="Fill 82" class="cls-17" d="M0,6.811V4.688L16.549,0l-.064,2.277Z" transform="translate(225.985 108.05)"/>
      <path id="Fill_84" data-name="Fill 84" class="cls-16" d="M0,11.217V9.093L32.1,0V2.387Z" transform="translate(288.518 120.966)"/>
      <path id="Fill_86" data-name="Fill 86" class="cls-16" d="M0,11.217V9.093L32.1,0V2.387Z" transform="translate(288.518 125.193)"/>
      <path id="Fill_88" data-name="Fill 88" class="cls-16" d="M0,6.81V4.687L16.549,0l-.064,2.277Z" transform="translate(303.803 130.302)"/>
      <path id="Fill_90" data-name="Fill 90" class="cls-18" d="M0,49.4V9.094L32.1,0V40.569Z" transform="translate(175.312 107.738)"/>
      <path id="Fill_92" data-name="Fill 92" class="cls-17" d="M0,11.757l10.54-2.9V0L0,2.985Z" transform="translate(192.46 122.754)"/>
      <path id="Fill_94" data-name="Fill 94" class="cls-17" d="M10.54,8.762V0L0,2.986v8.679Z" transform="translate(180.652 126.099)"/>
      <path id="Fill_96" data-name="Fill 96" class="cls-17" d="M0,2.9v8.756l10.54-2.9V0Z" transform="translate(192.46 132.925)"/>
      <path id="Fill_98" data-name="Fill 98" class="cls-17" d="M10.54,0,0,2.9v8.751l10.54-2.9Z" transform="translate(180.652 136.176)"/>
      <path id="Fill_100" data-name="Fill 100" class="cls-17" d="M7.187,4.436,0,0V6.362Z" transform="translate(183.716 120.603)"/>
      <path id="Fill_102" data-name="Fill 102" class="cls-17" d="M0,7.764,5.514,0V6.242Z" transform="translate(192.38 116.933)"/>
      <path id="Fill_104" data-name="Fill 104" class="cls-21" d="M0,10.277V2.7L9.529,0,9.461,7.675Z" transform="translate(175.038 84.183)"/>
      <path id="Fill_106" data-name="Fill 106" class="cls-21" d="M0,10.277V2.7L9.529,0,9.461,7.675Z" transform="translate(306.039 49.67)"/>
      <path id="Fill_108" data-name="Fill 108" class="cls-21" d="M0,10.277V2.7L9.53,0,9.462,7.674Z" transform="translate(292.629 53.307)"/>
      <path id="Fill_110" data-name="Fill 110" class="cls-15" d="M1.769,9.711h0V8.7a2.586,2.586,0,0,1-.291.018,1.356,1.356,0,0,1-.473-.074A1.159,1.159,0,0,1,.5,8.261a2.068,2.068,0,0,1-.328-.623A4.452,4.452,0,0,1,0,6.764l1.292-.581a2.635,2.635,0,0,0,.155.728.734.734,0,0,0,.322.336V5.353a3.535,3.535,0,0,1-.917-.291,1.248,1.248,0,0,1-.469-.591,2.8,2.8,0,0,1-.2-1.138,3.543,3.543,0,0,1,.4-1.7A2.021,2.021,0,0,1,1.769.641V.111L2.236,0V.53A2.008,2.008,0,0,1,2.5.512a1.1,1.1,0,0,1,.832.324,2.19,2.19,0,0,1,.494,1.224l-1.19.6a2.3,2.3,0,0,0-.161-.487.71.71,0,0,0-.238-.239V3.485a2.243,2.243,0,0,1,1.3.592,2.4,2.4,0,0,1,.432,1.528A3.928,3.928,0,0,1,3.812,6.71a3.756,3.756,0,0,1-.4.913A2.413,2.413,0,0,1,2.9,8.23a2.136,2.136,0,0,1-.666.347V9.588l-.465.123Zm.466-4.248V7.178a1.025,1.025,0,0,0,.4-.436,1.273,1.273,0,0,0,.127-.554.855.855,0,0,0-.107-.437.723.723,0,0,0-.418-.288Zm-.466-3.44a.926.926,0,0,0-.285.349,1.045,1.045,0,0,0-.079.412.844.844,0,0,0,.08.392.477.477,0,0,0,.283.224Z" transform="translate(215.39 122.27)"/>
      <path id="Fill_112" data-name="Fill 112" class="cls-15" d="M0,.9,3.8,0V1.436a10.554,10.554,0,0,0-.829,1.786A15.246,15.246,0,0,0,2.338,5.69,18.886,18.886,0,0,0,2.088,8.1l-1.3.339a21.517,21.517,0,0,1,.483-3.292A18.22,18.22,0,0,1,2.316,2.157L0,2.72Z" transform="translate(222.062 120.913)"/>
      <path id="Fill_114" data-name="Fill 114" class="cls-15" d="M1.453,7.981a.971.971,0,0,1-.5-.122,1.529,1.529,0,0,1-.6-.744A4.093,4.093,0,0,1,.095,6.028,12.173,12.173,0,0,1,0,4.435,7.7,7.7,0,0,1,.481,1.272,2.142,2.142,0,0,1,1.948.055,1.861,1.861,0,0,1,2.371,0a.992.992,0,0,1,.354.059,1.1,1.1,0,0,1,.5.373,2.125,2.125,0,0,1,.3.562,3.958,3.958,0,0,1,.177.732,10.824,10.824,0,0,1,.131,1.73A8.706,8.706,0,0,1,3.4,6.574,2.127,2.127,0,0,1,1.913,7.915,1.829,1.829,0,0,1,1.453,7.981Zm.534-6.522A.359.359,0,0,0,1.9,1.47c-.215.052-.371.269-.466.644a9.416,9.416,0,0,0-.144,2A7.709,7.709,0,0,0,1.45,6.063c.091.282.219.424.381.424a.321.321,0,0,0,.079-.01.587.587,0,0,0,.344-.313A2.3,2.3,0,0,0,2.467,5.4a12.386,12.386,0,0,0,.069-1.532,7.844,7.844,0,0,0-.158-1.991C2.287,1.6,2.156,1.459,1.987,1.459Z" transform="translate(226.409 120.137)"/>
      <path id="Fill_128" data-name="Fill 128" class="cls-15" d="M57.494.248,0,0,10.623,42.463h.006c.692,4.683,8.556,8.376,18.163,8.376,9.5,0,17.291-3.608,18.138-8.214h0Z" transform="translate(409.638 116.074)"/>
      <path id="Fill_130" data-name="Fill 130" class="cls-22" d="M57.831,10.726c0,5.924-12.946,10.726-28.916,10.726S0,16.65,0,10.726,12.946,0,28.915,0,57.831,4.8,57.831,10.726" transform="translate(409.514 104.347)"/>
      <path id="Fill_132" data-name="Fill 132" class="cls-21" d="M27.258,21.452c12.616,0,23.338-3,27.288-7.178A15,15,0,0,0,52.24,5.327C47.226,2.142,37.919,0,27.258,0A62,62,0,0,0,7.383,2.939,19.327,19.327,0,0,0,0,14.308c3.976,4.162,14.675,7.144,27.258,7.144" transform="translate(411.172 103.422)"/>
      <path id="Fill_134" data-name="Fill 134" class="cls-23" d="M12.35,24.682A12.339,12.339,0,0,1,3.617,3.615a12.356,12.356,0,0,1,17.465,0A12.341,12.341,0,0,1,12.35,24.682Zm0-20.242a7.9,7.9,0,1,0,7.907,7.9A7.913,7.913,0,0,0,12.35,4.44Z" transform="translate(167.067 253.959)"/>
      <path id="Fill_136" data-name="Fill 136" class="cls-24" d="M35.661,0,0,.09V30.416c0,4.933,7.983,8.932,17.831,8.932s17.831-4,17.831-8.932Z" transform="translate(143.459 248.426)"/>
      <path id="Fill_138" data-name="Fill 138" class="cls-23" d="M35.662,6.47c0,3.573-7.983,6.47-17.831,6.47S0,10.043,0,6.47,7.983,0,17.831,0,35.662,2.9,35.662,6.47" transform="translate(143.459 241.957)"/>
      <path id="Fill_140" data-name="Fill 140" class="cls-25" d="M14.147,5.849c5.765,0,10.888-.994,14.147-2.534C25.037,1.3,19.915,0,14.147,0S3.258,1.3,0,3.315c3.259,1.54,8.382,2.534,14.147,2.534" transform="translate(147.143 249.047)"/>
      <path id="Fill_142" data-name="Fill 142" class="cls-26" d="M75.656,5.129l3.878-2.606L75.656,0,0,21.429v63.5L3.879,86.9,9.544,58.847,75.656,40.665Z" transform="translate(88.079 119.219)"/>
      <path id="Fill_144" data-name="Fill 144" class="cls-27" d="M0,84.38V21.43L75.655,0V62.633Z" transform="translate(91.958 121.742)"/>
      <path id="Fill_146" data-name="Fill 146" class="cls-21" d="M0,7.324v-5.4L6.791,0,6.743,5.47Z" transform="translate(159.228 125.758)"/>
      <path id="Fill_148" data-name="Fill 148" class="cls-21" d="M0,7.324v-5.4L6.791,0,6.743,5.47Z" transform="translate(149.596 128.719)"/>
      <path id="Fill_150" data-name="Fill 150" class="cls-16" d="M0,10.491V8.11L28.634,0V2.616Z" transform="translate(97.507 140.877)"/>
      <path id="Fill_152" data-name="Fill 152" class="cls-16" d="M0,10.491V8.11L28.634,0V2.616Z" transform="translate(97.507 146.122)"/>
      <path id="Fill_154" data-name="Fill 154" class="cls-16" d="M0,10.491V8.11L28.634,0V2.616Z" transform="translate(97.507 152.407)"/>
      <path id="Fill_156" data-name="Fill 156" class="cls-16" d="M0,10.491V8.11L28.634,0V2.616Z" transform="translate(97.507 157.653)"/>
      <path id="Fill_158" data-name="Fill 158" class="cls-28" d="M0,18.91V1.748L6.169,0,5.96,17.272Z" transform="translate(137.235 168.322)"/>
      <path id="Fill_160" data-name="Fill 160" class="cls-28" d="M0,29.725V1.748L6.169,0l-.21,28.086Z" transform="translate(148.148 154.556)"/>
      <path id="Fill_162" data-name="Fill 162" class="cls-28" d="M6.169,0,0,1.748V37.3l5.96-1.639L6.087,7.6Z" transform="translate(158.37 144.161)"/>
      <path id="Fill_164" data-name="Fill 164" class="cls-21" d="M.154,5.292l1.211-.277.183-4.8L2.57,0,2.386,4.778,3.6,4.49,3.45,8.483l-1.218.309L2.05,13.559l-1.021.278.182-4.79L0,9.347Z" transform="translate(102.024 181.169)"/>
      <path id="Fill_166" data-name="Fill 166" class="cls-21" d="M1.6,5.591.415,5.043a15.173,15.173,0,0,1,.718-3.561Q1.611.2,2.4.028q.907-.2,1.261.994A9.864,9.864,0,0,1,3.94,4.151a12.781,12.781,0,0,1-.246,2.1,8.2,8.2,0,0,1-.561,1.75,1.125,1.125,0,0,1,.388.482,4.719,4.719,0,0,1,.3,1.327,14.167,14.167,0,0,1,.044,2.072A21.609,21.609,0,0,1,3.539,14.9a9.369,9.369,0,0,1-.7,2.363,1.877,1.877,0,0,1-1.077,1.085.809.809,0,0,1-.975-.272,3.767,3.767,0,0,1-.536-1.5A19.3,19.3,0,0,1,0,13.894l1.313-1.012a10.02,10.02,0,0,0,.154,2.005q.137.531.384.46t.46-.851a9.63,9.63,0,0,0,.249-1.983A7.863,7.863,0,0,0,2.47,10.65q-.14-.632-.425-.557-.151.04-.428.4l.2-3.543a.321.321,0,0,0,.165.019q.254-.063.447-.722a6.183,6.183,0,0,0,.227-1.5,4.9,4.9,0,0,0-.075-1.259q-.107-.453-.329-.4T1.865,3.7A10.5,10.5,0,0,0,1.6,5.591" transform="translate(108.198 177.263)"/>
      <path id="Fill_168" data-name="Fill 168" class="cls-21" d="M2.216,17.918h0l.13-3.251L0,15.359l.159-4.015L2.926.264,4.05,0,3.62,10.6l.582-.166-.151,3.717-.582.176-.131,3.236-1.121.354Zm.5-12.461-1.46,5.808,1.24-.347.22-5.46Z" transform="translate(112.37 175.968)"/>
      <path id="Fill_170" data-name="Fill 170" class="cls-21" d="M1.429,17.687a.88.88,0,0,1-.772-.569A7.817,7.817,0,0,1,.1,14.52,40.085,40.085,0,0,1,.055,9.484,34.373,34.373,0,0,1,.861,2.543C1.269,1.03,1.791.187,2.413.035A1.146,1.146,0,0,1,2.683,0a.709.709,0,0,1,.585.287,3.054,3.054,0,0,1,.476,1.23,13.8,13.8,0,0,1,.23,2.171l-1.305.921a6.182,6.182,0,0,0-.112-1.344c-.061-.222-.142-.335-.24-.335a.146.146,0,0,0-.036,0c-.208.054-.388.487-.535,1.288-.106.575-.218,1.8-.333,3.634a7.4,7.4,0,0,1,.526-1.4,1.053,1.053,0,0,1,.58-.566.471.471,0,0,1,.123-.017c.354,0,.643.452.859,1.344a14.919,14.919,0,0,1,.259,3.969,21.946,21.946,0,0,1-.343,3.127,9.163,9.163,0,0,1-.688,2.3,1.851,1.851,0,0,1-.992,1.03A1,1,0,0,1,1.429,17.687ZM2.088,8.9h0a.181.181,0,0,0-.049.007c-.178.051-.34.342-.481.863a10.264,10.264,0,0,0-.267,2.151,9.021,9.021,0,0,0,.1,2.119c.094.432.22.651.376.651a.191.191,0,0,0,.057-.009c.167-.053.319-.336.453-.841a10.839,10.839,0,0,0,.257-2.165,9.515,9.515,0,0,0-.087-2.14C2.36,9.117,2.239,8.9,2.088,8.9Z" transform="translate(116.988 175.215)"/>
      <path id="Fill_172" data-name="Fill 172" class="cls-21" d="M.719,18.6v0L4.136.18,4.805,0,1.38,18.368.721,18.6Zm3.156-1.154a.582.582,0,0,1-.485-.351,3.752,3.752,0,0,1-.363-1.439,15.6,15.6,0,0,1-.047-2.135,18.163,18.163,0,0,1,.232-2.226,6.633,6.633,0,0,1,.5-1.719,1.344,1.344,0,0,1,.707-.77.549.549,0,0,1,.166-.027c.307,0,.544.306.7.908a10.5,10.5,0,0,1,.2,3,13.5,13.5,0,0,1-.469,3.228c-.255.856-.581,1.361-.97,1.5A.532.532,0,0,1,3.875,17.443Zm.5-6.743a.131.131,0,0,0-.035.006c-.105.034-.191.2-.256.49a12.243,12.243,0,0,0-.212,2.05,10.551,10.551,0,0,0,.04,1.968c.036.218.1.329.183.329a.142.142,0,0,0,.038-.007c.1-.037.191-.2.257-.485A12.39,12.39,0,0,0,4.6,13a10.641,10.641,0,0,0-.04-1.973C4.522,10.811,4.459,10.7,4.372,10.7ZM.934,9.617a.609.609,0,0,1-.507-.379A3.989,3.989,0,0,1,.064,7.758,16.047,16.047,0,0,1,.016,5.584,17.755,17.755,0,0,1,.25,3.344a6.46,6.46,0,0,1,.5-1.716A1.252,1.252,0,0,1,1.455.89.549.549,0,0,1,1.594.871c.317,0,.562.322.729.956a10.867,10.867,0,0,1,.2,3.049,13.618,13.618,0,0,1-.469,3.256c-.256.851-.582,1.343-.968,1.46A.532.532,0,0,1,.934,9.617Zm.471-6.8a.125.125,0,0,0-.031,0c-.105.028-.192.186-.257.471A12.507,12.507,0,0,0,.9,5.358a10.967,10.967,0,0,0,.04,2c.039.234.1.353.191.353a.1.1,0,0,0,.032,0c.1-.031.19-.194.255-.487a12.592,12.592,0,0,0,.212-2.066,10.968,10.968,0,0,0-.041-1.993C1.557,2.93,1.493,2.813,1.4,2.813Z" transform="translate(123.73 172.897)"/>
      <path id="Fill_174" data-name="Fill 174" class="cls-12" d="M53.99,54.7l73.629-20.3a3.838,3.838,0,0,0,.739-7.113L76.253.427a3.847,3.847,0,0,0-2.8-.284L2.8,19.972a3.838,3.838,0,0,0-.83,7.05L51.1,54.352a3.846,3.846,0,0,0,2.891.346" transform="translate(0.144 218.858)"/>
      <path id="Fill_176" data-name="Fill 176" class="cls-18" d="M127.358,27.285,75.252.427a3.841,3.841,0,0,0-2.8-.284L1.8,19.972A3.787,3.787,0,0,0,0,21.081a3.911,3.911,0,0,0,.973.76L50.1,49.171a3.846,3.846,0,0,0,2.891.346l73.629-20.3a3.79,3.79,0,0,0,1.817-1.11,3.9,3.9,0,0,0-1.078-.821" transform="translate(1.145 218.858)"/>
      <path id="Fill_178" data-name="Fill 178" class="cls-16" d="M102.624,21.986,60.638.344A3.1,3.1,0,0,0,58.381.115L1.453,16.094A3.056,3.056,0,0,0,0,16.987a3.179,3.179,0,0,0,.784.613L40.369,39.621a3.1,3.1,0,0,0,2.33.279l59.33-16.359a3.05,3.05,0,0,0,1.465-.895,3.138,3.138,0,0,0-.868-.661" transform="translate(16.742 222.925)"/>
      <path id="Fill_180" data-name="Fill 180" class="cls-12" d="M5.482,2.559c-.249.921-1.67,1.337-3.174.931S-.211,2.008.037,1.087,1.708-.251,3.212.156s2.52,1.483,2.271,2.4" transform="translate(26.261 248.929)"/>
      <path id="Fill_182" data-name="Fill 182" class="cls-21" d="M19.927,23.669c10.63,0,19.915,2.129,24.939,5.3C42.483,25.2,39,23.061,37.95,21.652c-1.714-2.3-.182-6-1.092-8.545S31.217,11.289,30.126,6.2,24.667-.166,19.885.017s-3.406,8.182-5.407,10-4-1.545-8.552,2.182c-4.09,3.351,2.669,9.16-4.731,13.636-.419.254-.816.519-1.2.793a61.922,61.922,0,0,1,19.927-2.957" transform="translate(418.528 80.678)"/>
      <g id="float_app" data-name="float app" transform="translate(344.745 25.003)">
        <path id="Fill_116" data-name="Fill 116" class="cls-26" d="M69.675,4.724l3.572-2.9L69.675,0,0,19.735V56.613l3.572,1.822L8.789,54.2,69.675,37.451Z" transform="translate(0.125 0.214)"/>
        <path id="Fill_118" data-name="Fill 118" class="cls-27" d="M0,56.613V19.736L69.675,0V36.584Z" transform="translate(3.697 2.036)"/>
        <path id="Fill_120" data-name="Fill 120" class="cls-18" d="M.147,18.843,0,18.318,65.479,0l.147.525Z" transform="translate(5.806 31.828)"/>
        <path id="Fill_122" data-name="Fill 122" class="cls-18" d="M.147,18.843,0,18.318,65.479,0l.147.525Z" transform="translate(5.806 25.828)"/>
        <path id="Fill_124" data-name="Fill 124" class="cls-18" d="M.147,18.843,0,18.318,65.479,0l.147.525Z" transform="translate(5.806 19.828)"/>
        <path id="Fill_126" data-name="Fill 126" class="cls-28" d="M0,25.5V18.92L65.479,0V6.748Z" transform="translate(5.88 4.939)"/>
        <path id="Fill_184" data-name="Fill 184" class="cls-18" d="M.386,17.609,0,.011.546,0,.932,17.6Z" transform="translate(26.321 32.091)"/>
        <path id="Fill_186" data-name="Fill 186" class="cls-18" d="M1.042,21.331,0,.027.545,0,1.587,21.3Z" transform="translate(55.66 19.691)"/>
        <path id="Fill_188" data-name="Fill 188" class="cls-28" d="M2.638,1.318A1.319,1.319,0,1,1,1.319,0,1.319,1.319,0,0,1,2.638,1.318" transform="translate(25.274 30.779)"/>
        <path id="Fill_192" data-name="Fill 192" class="cls-28" d="M2.638,1.318A1.319,1.319,0,1,1,1.319,0,1.319,1.319,0,0,1,2.638,1.318" transform="translate(54.614 18.386)"/>
        <path id="Fill_194" data-name="Fill 194" class="cls-18" d="M.273,24.183A.273.273,0,0,1,0,23.911V.273a.273.273,0,0,1,.546,0V23.548L65.676,4.776a.273.273,0,0,1,.152.524L.349,24.173a.258.258,0,0,1-.076.011" transform="translate(5.607 31.824)"/>
        <path id="Fill_190" data-name="Fill 190" class="cls-21" d="M69.675,0c-2.521,2.5-6.061,5.824-7.621,6.551-1.621.757-3.727-.141-5.764-1.009-.715-.3-1.455-.62-2.163-.856-2.088-.695-4.063,2.169-6.8,6.132-2.249,3.261-5.049,7.318-7.348,8.066-2.782.9-5.775.056-8.943-.842a32.469,32.469,0,0,0-6.845-1.41c-4.136-.263-7.844,3.425-11.42,6.987A32.717,32.717,0,0,1,7.015,28.6,8.094,8.094,0,0,1,0,29.351v2.286a10.119,10.119,0,0,0,2.719.377,10.56,10.56,0,0,0,5.4-1.533,34.047,34.047,0,0,0,6.195-5.315c3.234-3.221,6.575-6.555,9.743-6.355a30.821,30.821,0,0,1,6.385,1.331c3.343.947,6.8,1.928,10.215.818,3-.976,5.908-5.187,8.471-8.9,1.406-2.037,3.52-5.1,4.36-5.285.61.206,1.259.483,1.947.776,2.361,1.006,5.038,2.147,7.543.979,1.582-.737,4.391-3.254,6.7-5.471Z" transform="translate(3.697 17.681)"/>
      </g>
    </g>
    <g id="front_person" data-name="front person" transform="translate(305 89)">
      <g id="Group_201" data-name="Group 201" transform="translate(68.191 14.376)">
        <path id="Fill_197" data-name="Fill 197" class="cls-8" d="M107.429,96.887S31.937,9.955,22.486,11.9,10.017,7.313,6.095,2.12-.715,2.533.678,5.545,8.925,14.828,8.851,17.3-.833,18.742.058,21.986s9.033,3.738,10.83,5.649,9.678,11.059,16.761,13.873c0,0,45.144,52.229,46.852,61.19s32.928-5.811,32.928-5.811" transform="translate(0.347 0.011)"/>
        <path id="Fill_199" data-name="Fill 199" class="cls-29" d="M42.331,22.049S32.06,14.359,19.069,0L0,13.551c5.785,7.717,10.067,14.123,10.57,16.765,1.707,8.962,31.761-8.266,31.761-8.266" transform="translate(66.983 72.434)"/>
      </g>
      <g id="Group_204" data-name="Group 204" transform="translate(82.907 0.732)">
        <path id="Clip_203-2" data-name="Clip 203" class="cls-2" d="M18.459,11.149,5.567,9.388S4.4,16.723,7.033,20.537h0L0,22.591s-.293,22.3,12.892,34.326h0c13.184,12.028,22.267,31.1,22.267,31.1h0s4.981,7.628,7.032,8.8h0c2.052,1.174,11.33,0,11.33,0h0a22.6,22.6,0,0,1,4.492-7.335h0c2.93-2.934,18.459-15.256,17.58-34.032h0c-.879-18.777-10.841-30.219-22.561-37.26h0C41.313,11.149,40.141.587,40.141.587h0s-3.223,6.161-3.516,9.975h0L20.217,0a32.137,32.137,0,0,0-1.758,11.149" transform="translate(0.065 0.436)"/>
      </g>
      <g id="Group_215" data-name="Group 215" transform="translate(0.604 44.94)">
        <path id="Fill_205" data-name="Fill 205" class="cls-9" d="M65.414,19.053S59.9,33.217,55.99,32.89C50.716,32.451,5.057-1.876,1.151.081s3.32,5.868,4.1,7.237-3.711,4.3-3.32,9S11.5,27.072,15.8,27.659,54.085,56.41,60.336,57s23.83-25.817,23.83-25.817Z" transform="translate(0.156 121.226)"/>
        <path id="Fill_207" data-name="Fill 207" class="cls-5" d="M10.643,1.1A74.919,74.919,0,0,0,0,3.579C4.448,9.706,7.575,14.63,8,16.862,9.707,25.825,39.761,8.6,39.761,8.6S36.2,5.926,30.612.8c-5.1-1.213-11.773-.988-19.969.3" transform="translate(137.139 55.323)"/>
        <path id="Fill_209" data-name="Fill 209" class="cls-9" d="M4.563,0S-1.3,7.432.265,26.991s7.813,30.9,11.72,32.077,8.595-3.912,10.548-1.956S24.877,72.76,24.877,72.76,42.066,82.93,51.051,74.325s5.86-14.865,5.86-14.865-11.329,1.174-12.892-6.65L31.127,42.639S38.16,27.774,32.69,24.645s-8.985,1.564-9.766,3.52-2.735-9-6.251-10.562-7.423-1.956-7.423-6.258S4.563,0,4.563,0" transform="translate(91.87 0.236)"/>
        <path id="Fill_242" data-name="Fill 242" class="cls-5" d="M51.315,14.372S25.853,35.065,14.1,54.2,0,81.526,0,81.526,11.808,96.045,21.993,97.607c0,0,8.138-14.034,9.607-12.57s2.284,18.792.815,23.038-9.759,42.033-10.33,50.087c-1.331,18.763,24.155,57.508,79.793,32.32,30.422-13.772-1.205-78.113-1.205-105.443s16.06-54.268,14.885-69.105S103.414-2.026,83.436,1.1,51.315,14.372,51.315,14.372" transform="translate(65.113 58.725)"/>
        <path id="Fill_213_Copy" data-name="Fill 213 Copy" class="cls-31" d="M83.31,128.342c-4.231-18.424-7.347-38.8-7.347-50.523,0-27.383,13.358-52.5,12.186-67.368C87.793,5.932,86.528,2.5,84.389,0,71,4.19,32.2,15.9,22.7,34.078c-13.309,25.47-8.5,79.3-15.856,92.419-6.647,11.858-9.423,36.876-3.871,50.158,3.871,3.4,31.305,5.628,54.6,0,21.186-5.119,29.612-17.915,29.612-17.915Z" transform="translate(92.666 64.11)"/>
      </g>
    </g>
  </g>
</svg>
